%TF.GenerationSoftware,KiCad,Pcbnew,9.0.7*%
%TF.CreationDate,2026-02-03T11:28:49-08:00*%
%TF.ProjectId,BL54L15__Hygrometer,424c3534-4c31-435b-9c5f-487967726f6d,rev?*%
%TF.SameCoordinates,Original*%
%TF.FileFunction,Paste,Top*%
%TF.FilePolarity,Positive*%
%FSLAX46Y46*%
G04 Gerber Fmt 4.6, Leading zero omitted, Abs format (unit mm)*
G04 Created by KiCad (PCBNEW 9.0.7) date 2026-02-03 11:28:49*
%MOMM*%
%LPD*%
G01*
G04 APERTURE LIST*
G04 Aperture macros list*
%AMRoundRect*
0 Rectangle with rounded corners*
0 $1 Rounding radius*
0 $2 $3 $4 $5 $6 $7 $8 $9 X,Y pos of 4 corners*
0 Add a 4 corners polygon primitive as box body*
4,1,4,$2,$3,$4,$5,$6,$7,$8,$9,$2,$3,0*
0 Add four circle primitives for the rounded corners*
1,1,$1+$1,$2,$3*
1,1,$1+$1,$4,$5*
1,1,$1+$1,$6,$7*
1,1,$1+$1,$8,$9*
0 Add four rect primitives between the rounded corners*
20,1,$1+$1,$2,$3,$4,$5,0*
20,1,$1+$1,$4,$5,$6,$7,0*
20,1,$1+$1,$6,$7,$8,$9,0*
20,1,$1+$1,$8,$9,$2,$3,0*%
G04 Aperture macros list end*
%ADD10RoundRect,0.200000X-0.200000X-0.800000X0.200000X-0.800000X0.200000X0.800000X-0.200000X0.800000X0*%
%ADD11RoundRect,0.140000X0.170000X-0.140000X0.170000X0.140000X-0.170000X0.140000X-0.170000X-0.140000X0*%
%ADD12R,0.400000X0.400000*%
%ADD13RoundRect,0.140000X-0.140000X-0.170000X0.140000X-0.170000X0.140000X0.170000X-0.140000X0.170000X0*%
%ADD14R,1.066800X1.803400*%
%ADD15RoundRect,0.225000X-0.250000X0.225000X-0.250000X-0.225000X0.250000X-0.225000X0.250000X0.225000X0*%
%ADD16RoundRect,0.125000X-0.125000X-0.137500X0.125000X-0.137500X0.125000X0.137500X-0.125000X0.137500X0*%
%ADD17RoundRect,0.200000X-0.200000X-0.275000X0.200000X-0.275000X0.200000X0.275000X-0.200000X0.275000X0*%
%ADD18R,0.500000X0.300000*%
%ADD19R,2.400000X0.740000*%
%ADD20RoundRect,0.140000X-0.170000X0.140000X-0.170000X-0.140000X0.170000X-0.140000X0.170000X0.140000X0*%
%ADD21R,0.660400X1.549400*%
%ADD22R,1.295400X1.905000*%
%ADD23R,1.800000X1.000000*%
%ADD24RoundRect,0.225000X0.250000X-0.225000X0.250000X0.225000X-0.250000X0.225000X-0.250000X-0.225000X0*%
%ADD25RoundRect,0.250000X-0.275000X0.275000X-0.275000X-0.275000X0.275000X-0.275000X0.275000X0.275000X0*%
%ADD26RoundRect,0.075000X-0.075000X0.337500X-0.075000X-0.337500X0.075000X-0.337500X0.075000X0.337500X0*%
%ADD27RoundRect,0.075000X-0.337500X0.075000X-0.337500X-0.075000X0.337500X-0.075000X0.337500X0.075000X0*%
%ADD28RoundRect,0.218750X-0.218750X-0.256250X0.218750X-0.256250X0.218750X0.256250X-0.218750X0.256250X0*%
%ADD29R,0.850000X0.850000*%
G04 APERTURE END LIST*
D10*
%TO.C,SW1*%
X100198500Y-69659500D03*
X104398500Y-69659500D03*
%TD*%
D11*
%TO.C,C5*%
X104031000Y-60891500D03*
X104031000Y-59931500D03*
%TD*%
D12*
%TO.C,IC1*%
X97098500Y-84728500D03*
X96448500Y-84728500D03*
X97098500Y-84078500D03*
X96448500Y-84078500D03*
X97098500Y-83278500D03*
X96448500Y-83278500D03*
X97098500Y-82628500D03*
X96448500Y-82628500D03*
X97098500Y-81978500D03*
X96448500Y-81978500D03*
X97098500Y-81328500D03*
X96448500Y-81328500D03*
X97098500Y-80678500D03*
X96448500Y-80678500D03*
X97098500Y-79878500D03*
X96448500Y-79878500D03*
X97098500Y-79228500D03*
X96448500Y-79228500D03*
X95798500Y-79228500D03*
X95798500Y-79878500D03*
X95148500Y-79228500D03*
X95148500Y-79878500D03*
X94498500Y-79228500D03*
X94498500Y-79878500D03*
X93848500Y-79228500D03*
X93848500Y-79878500D03*
X93123500Y-79228500D03*
X93123500Y-79878500D03*
X93848500Y-80678500D03*
X93848500Y-81328500D03*
X93123500Y-81328500D03*
X93848500Y-81978500D03*
X93848500Y-82628500D03*
X93123500Y-82628500D03*
X93848500Y-83278500D03*
X93123500Y-84078500D03*
X93123500Y-84728500D03*
X93848500Y-84078500D03*
X93848500Y-84728500D03*
X94498500Y-84078500D03*
X94498500Y-84728500D03*
X95148500Y-84078500D03*
X95148500Y-84728500D03*
X95798500Y-84078500D03*
X95798500Y-84728500D03*
X92298500Y-84728500D03*
X91148500Y-84728500D03*
X89998500Y-84728500D03*
X92298500Y-79228500D03*
X91148500Y-79228500D03*
X89998500Y-79228500D03*
%TD*%
D13*
%TO.C,C7*%
X95938400Y-98526600D03*
X96898400Y-98526600D03*
%TD*%
D14*
%TO.C,L1*%
X99076800Y-57011500D03*
X100931000Y-57011500D03*
%TD*%
D11*
%TO.C,C8*%
X106210100Y-96428500D03*
X106210100Y-95468500D03*
%TD*%
D15*
%TO.C,C1*%
X104330500Y-55521700D03*
X104330500Y-57071700D03*
%TD*%
D16*
%TO.C,U5*%
X108464500Y-80816500D03*
X109264500Y-80816500D03*
X110064500Y-80816500D03*
X110864500Y-80816500D03*
X110864500Y-83191500D03*
X110064500Y-83191500D03*
X109264500Y-83191500D03*
X108464500Y-83191500D03*
%TD*%
D17*
%TO.C,R1*%
X107810800Y-67564000D03*
X109460800Y-67564000D03*
%TD*%
D18*
%TO.C,U2*%
X95218068Y-95298294D03*
X95218068Y-96098294D03*
X96618068Y-96098294D03*
X96618068Y-95298294D03*
%TD*%
D19*
%TO.C,J2*%
X95784500Y-70548500D03*
X91884500Y-70548500D03*
X95784500Y-69278500D03*
X91884500Y-69278500D03*
X95784500Y-68008500D03*
X91884500Y-68008500D03*
X95784500Y-66738500D03*
X91884500Y-66738500D03*
X95784500Y-65468500D03*
X91884500Y-65468500D03*
%TD*%
D20*
%TO.C,C2*%
X102731000Y-55486500D03*
X102731000Y-56446500D03*
%TD*%
D11*
%TO.C,C9*%
X106182812Y-82482012D03*
X106182812Y-81522012D03*
%TD*%
D15*
%TO.C,C3*%
X99758500Y-84886500D03*
X99758500Y-86436500D03*
%TD*%
D21*
%TO.C,J1*%
X100793801Y-104952800D03*
X101793802Y-104952800D03*
X102793800Y-104952800D03*
X103793801Y-104952800D03*
D22*
X105093800Y-108827801D03*
X99493802Y-108827801D03*
%TD*%
D20*
%TO.C,C4*%
X104031000Y-62011500D03*
X104031000Y-62971500D03*
%TD*%
D23*
%TO.C,X1*%
X99758500Y-82911000D03*
X99758500Y-80411000D03*
%TD*%
D24*
%TO.C,C6*%
X105731000Y-60986500D03*
X105731000Y-59436500D03*
%TD*%
D25*
%TO.C,U1*%
X101043500Y-60396500D03*
X99743500Y-60396500D03*
X101043500Y-61696500D03*
X99743500Y-61696500D03*
D26*
X101368500Y-59109000D03*
X100718500Y-59109000D03*
X100068500Y-59109000D03*
X99418500Y-59109000D03*
D27*
X98456000Y-60071500D03*
X98456000Y-60721500D03*
X98456000Y-61371500D03*
X98456000Y-62021500D03*
D26*
X99418500Y-62984000D03*
X100068500Y-62984000D03*
X100718500Y-62984000D03*
X101368500Y-62984000D03*
D27*
X102331000Y-62021500D03*
X102331000Y-61371500D03*
X102331000Y-60721500D03*
X102331000Y-60071500D03*
%TD*%
D28*
%TO.C,D1*%
X107848300Y-70612000D03*
X109423300Y-70612000D03*
%TD*%
D29*
%TO.C,U3*%
X110194200Y-97085800D03*
X110194200Y-95935800D03*
X110194200Y-94785800D03*
X109169200Y-94410800D03*
X108144200Y-94785800D03*
X108144200Y-95935800D03*
X108144200Y-97085800D03*
X109169200Y-97460800D03*
%TD*%
M02*
